# xmcd
#
# Track frame offsets: 
#        150
#        12388
#        25197
#        38450
#        48910
#        65565
#        84384
#        95162
#        105369
#        116196
#        130076
#        145000
#
# Disc length: 2176 seconds
#
# Revision: 0
# Processed by: cddbd v1.5.2PL0 Copyright (c) Steve Scherf et al.
# Submitted via: ExactAudioCopyFreeDBPlugin 1.0
#
DISCID=96087e0c
DTITLE=The Strypes - Snapshot
DYEAR=2013
DGENRE=Blues
TTITLE0=Mystery Man
TTITLE1=Blue Collar Jane
TTITLE2=What The People Don't See
TTITLE3=She's So Fine
TTITLE4=I Can Tell
TTITLE5=Angel Eyes
TTITLE6=Perfect Storm
TTITLE7=You Can't Judge A Book By The Cover
TTITLE8=What A Shame
TTITLE9=Hometown Girls
TTITLE10=Heart Of The City
TTITLE11=Rollin' And Tumblin'
EXTD=
EXTT0=
EXTT1=
EXTT2=
EXTT3=
EXTT4=
EXTT5=
EXTT6=
EXTT7=
EXTT8=
EXTT9=
EXTT10=
EXTT11=
PLAYORDER=
